<svg xmlns="http://www.w3.org/2000/svg" viewBox="0 0 248.34 123.75"><defs><style>.cls-1,.cls-5,.cls-8{fill:none;}.cls-1{stroke:#e584a9;stroke-width:3px;}.cls-2{font-size:103.19px;}.cls-2,.cls-3{fill:#007d38;font-family:STXinwei, STXinwei;}.cls-3{font-size:31.34px;}.cls-4{fill:#56a333;}.cls-5{stroke:#c9bc9c;}.cls-6{fill:#55a433;}.cls-7{fill:#e584a9;}.cls-8{stroke:#ceba9b;}</style></defs><title>资源 1</title><g id="图层_2" data-name="图层 2"><g id="图层_1-2" data-name="图层 1"><path class="cls-1" d="M245.7,109.57c0,7-4.9,12.69-11,12.69H12.45c-6,0-11-5.68-11-12.69V14.19c0-7,4.9-12.69,11-12.69h222.3c6,0,11,5.68,11,12.69Z"/><text class="cls-2" transform="translate(93.55 70.32) scale(0.75)">美荷</text><text class="cls-3" transform="translate(84.51 108.38) scale(0.75)">meiheapp.com</text><path class="cls-4" d="M59.94,85.33s-.06-3.54,5.32-4.14c0,0,6.17.82,7.85-3.4,0,0,2.39-4.88,9-2.85l3.58-4.7s5.16,2.1,7.34-4c0,0,2.8-3.6,4.5-2.8,0,0,3.43-6.36,1.59-10.21,0,0,0-8.05-2.64-6.56,0,0-3,.69-3-1.77,0,0-4.59-4.6-9.17-1.24,0,0-3.16,4.69-11.19-2.46,0,0-6.61,3.28-7.88-.31s-3.85-1.41-4.74-2.22-3.37.74-3.37.74-2.27,4.14-7.86.88c0,0-9.07,3.46-8.51,6.38,0,0-8.13-2.61-8,5.46,0,0-4.32,2.92-4,1.06,0,0-2.71,3-.92,5.94,0,0-3.42-2.55-2.16,7.48,0,0-3.44,2.37,2.68,10,0,0,7.67,3,7.88,5.54,0,0,1.55,1.79,5.57-1.83,0,0,4.28,1.22,4.34,3.47,0,0,4.07-1.31,6,.81,0,0,2.55,3.22,4.38.59Z"/><path class="cls-4" d="M64.62,69.64c-.07.46-.71.76-1.42.66s-1.24-.55-1.16-1,.71-.76,1.42-.66S64.69,69.18,64.62,69.64Z"/><line class="cls-4" x1="65.29" y1="65.28" x2="73.36" y2="43.49"/><path class="cls-4" d="M70.67,66S87.23,55,88.53,54.4"/><line class="cls-4" x1="62.71" y1="64.93" x2="61.62" y2="41.9"/><line class="cls-4" x1="58.97" y1="68.02" x2="49.4" y2="59.03"/><path class="cls-4" d="M52.88,71.93s-18.22-9.6-17.8-11"/><path class="cls-5" d="M59.94,85.33s-.06-3.54,5.32-4.14c0,0,6.17.82,7.85-3.4,0,0,2.39-4.88,9-2.85l3.58-4.7s5.16,2.1,7.34-4c0,0,2.8-3.6,4.5-2.8,0,0,3.43-6.36,1.59-10.21,0,0,0-8.05-2.64-6.56,0,0-3,.69-3-1.77,0,0-4.59-4.6-9.17-1.24,0,0-3.16,4.69-11.19-2.46,0,0-6.61,3.28-7.88-.31s-3.85-1.41-4.74-2.22-3.37.74-3.37.74-2.27,4.14-7.86.88c0,0-9.07,3.46-8.51,6.38,0,0-8.13-2.61-8,5.46,0,0-4.32,2.92-4,1.06,0,0-2.71,3-.92,5.94,0,0-3.42-2.55-2.16,7.48,0,0-3.44,2.37,2.68,10,0,0,7.67,3,7.88,5.54,0,0,1.55,1.79,5.57-1.83,0,0,4.28,1.22,4.34,3.47,0,0,4.07-1.31,6,.81,0,0,2.55,3.22,4.38.59Z"/><path class="cls-5" d="M64.62,69.64c-.07.46-.71.76-1.42.66s-1.24-.55-1.16-1,.71-.76,1.42-.66S64.69,69.18,64.62,69.64Z"/><line class="cls-5" x1="65.29" y1="65.28" x2="73.36" y2="43.49"/><path class="cls-5" d="M70.67,66S87.23,55,88.53,54.4"/><line class="cls-5" x1="62.71" y1="64.93" x2="61.62" y2="41.9"/><line class="cls-5" x1="58.97" y1="68.02" x2="49.4" y2="59.03"/><path class="cls-5" d="M52.88,71.93s-18.22-9.6-17.8-11"/><line class="cls-5" x1="61.05" y1="75.55" x2="59.24" y2="80.25"/><line class="cls-5" x1="65.3" y1="74.49" x2="67.97" y2="78.1"/><polygon class="cls-6" points="56.67 122.98 51.03 122.24 58.15 75.11 63.8 75.86 56.67 122.98"/><rect class="cls-6" x="25.39" y="73.49" width="5.7" height="49.3"/><path class="cls-7" d="M25.44,75.44s-13.7,2.47-21.72-9c0,0,9.76,5.07,12.85,4.2,0,0-6.24-2.08-6.69-11.66,0,0-9.68-20.31,9.33-30.85l.69,1.12S35.46,11.57,36.51,12c0,0,.31,1.93,1.47.16,0,0,.74,1.47,2.17-1,0,0,1.89,2.64,3.63,2.14,0,0-.2,1.54,2.68-.57,0,0,.61,2.5,1.73,2.45,0,0,1.51,10,3.4,12.68,0,0,10.62,24.57-4.65,36.4,0,0,18.28-9.24,19.51-14.47,0,0-.87,27.2-35.79,26.92Z"/><path class="cls-7" d="M9.94,59.93,9.88,59s5.81,9.86,13,14.63c0,0-4.67-6,12.84-11.76,0,0,8.76,8.6-1.75,13.67"/><path class="cls-7" d="M19.9,29.25s13.94,25.54,8.46,35"/><path class="cls-7" d="M25.19,35.21s.8-7.71,22-13.33a42.55,42.55,0,0,1,4.15,5.58"/><path class="cls-8" d="M25.44,75.44s-13.7,2.47-21.72-9c0,0,9.76,5.07,12.85,4.2,0,0-6.24-2.08-6.69-11.66,0,0-9.68-20.31,9.33-30.85l.69,1.12S35.46,11.57,36.51,12c0,0,.31,1.93,1.47.16,0,0,.74,1.47,2.17-1,0,0,1.89,2.64,3.63,2.14,0,0-.2,1.54,2.68-.57,0,0,.61,2.5,1.73,2.45,0,0,1.51,10,3.4,12.68,0,0,10.62,24.57-4.65,36.4,0,0,18.28-9.24,19.51-14.47,0,0-.87,27.2-35.79,26.92Z"/><path class="cls-8" d="M9.94,59.93,9.88,59s5.81,9.86,13,14.63c0,0-4.67-6,12.84-11.76,0,0,8.76,8.6-1.75,13.67"/><path class="cls-8" d="M19.9,29.25s13.94,25.54,8.46,35"/><path class="cls-8" d="M25.19,35.21s.8-7.71,22-13.33a42.55,42.55,0,0,1,4.15,5.58"/></g></g></svg>